<?xml version="1.0" encoding="utf-8"?>
<!-- Generator: Adobe Illustrator 23.0.1, SVG Export Plug-In . SVG Version: 6.00 Build 0)  -->
<svg version="1.1" id="brk1" xmlns="http://www.w3.org/2000/svg" xmlns:xlink="http://www.w3.org/1999/xlink" x="0px" y="0px"
	 viewBox="0 0 211.31 64.6" style="enable-background:new 0 0 211.31 64.6;" xml:space="preserve">
<style type="text/css">
	.st0{fill:#212121;}
</style>
<g id="desnibrk">
	<path class="st0" d="M207.4,38.58c-5.22,16.77-17.77,20.57-31.08,7.86c-8.68-8.29-14.81-19.19-22.37-28.7
		c-4.47-5.62-9.7-10.96-16.09-14.37c-5.2-2.77-11.05-3.96-16.9-3.11c-3.99,0.58-7.81,2-11.36,3.87c-2.96,1.56-6.04,3.41-8.56,5.64
		c-1.53,1.36-2.83,3.1-3.18,5.11c-0.86,4.87,3.33,8.62,7.45,10.19c2.47,0.94,5.07,1.46,7.55,2.38c2.57,0.96,5.09,2.01,7.6,3.12
		c7.92,3.47,15.65,7.36,23.12,11.72c3.72,2.17,7.37,4.45,10.93,6.86c12.81,8.64,25.04,17.09,41.32,15.17
		C210.86,62.56,215.41,52.18,207.4,38.58z"/>
</g>
<g id="levibrk">
	<path class="st0" d="M3.9,38.58c5.22,16.77,17.77,20.57,31.08,7.86c8.68-8.29,14.81-19.19,22.37-28.7
		c4.47-5.62,9.7-10.96,16.09-14.37c5.2-2.77,11.05-3.96,16.9-3.11c3.99,0.58,7.81,2,11.36,3.87c2.96,1.56,6.04,3.41,8.56,5.64
		c1.53,1.36,2.83,3.1,3.18,5.11c0.86,4.87-3.33,8.62-7.45,10.19c-2.47,0.94-5.07,1.46-7.55,2.38c-2.57,0.96-5.09,2.01-7.6,3.12
		c-7.92,3.47-15.65,7.36-23.12,11.72c-3.72,2.17-7.37,4.45-10.93,6.86C43.98,57.8,31.75,66.24,15.47,64.33
		C0.45,62.56-4.11,52.18,3.9,38.58z"/>
</g>
</svg>
