<?xml version="1.0" encoding="utf-8"?>
<!-- Generator: Adobe Illustrator 23.0.1, SVG Export Plug-In . SVG Version: 6.00 Build 0)  -->
<svg version="1.1" id="brk2" xmlns="http://www.w3.org/2000/svg" xmlns:xlink="http://www.w3.org/1999/xlink" x="0px" y="0px"
	 viewBox="0 0 41.91 31.73" style="enable-background:new 0 0 41.91 31.73;" xml:space="preserve">
<style type="text/css">
	.st0{fill:#212121;}
</style>
<path id="desni2" class="st0" d="M39.14,23.05c-0.56-4.5,0.04-8.95-0.17-13.45c-0.11-2.35-0.7-4.56-2.6-6.4
	c-1.67-1.62-4.09-2.77-6.66-3.09C28.08-0.1,26.4,0,24.8,0.41c-0.19,0.05-0.39,0.11-0.59,0.17l0,0c-2.75,0.66-6.71,3.55-4.89,4.79
	c1.82,1.23,3.43,1.97,3.43,1.97l0,0c0.41,0.25,0.83,0.5,1.24,0.77c1.7,1.11,3.46,2.2,4.86,3.7c1.38,1.48,2.35,3.35,2.67,5.35
	c0.38,2.36,0.25,4.76,0.76,7.11c0.41,1.9,1.32,3.85,3.05,5.2c0.89,0.7,1.95,1.23,3.09,1.6c0.33,0.11,3.17,0.57,3.48,0.67
	c0.01,0,0.02-0.01,0.02-0.02C40.87,28.58,39.49,25.86,39.14,23.05z"/>
<path id="levi2" class="st0" d="M2.77,23.05c0.56-4.5-0.04-8.95,0.17-13.45c0.11-2.35,0.7-4.56,2.6-6.4
	C7.21,1.58,9.63,0.43,12.2,0.1C13.83-0.1,15.52,0,17.11,0.41c0.19,0.05,0.39,0.11,0.59,0.17l0,0c2.75,0.66,6.71,3.55,4.89,4.79
	c-1.82,1.23-3.43,1.97-3.43,1.97l0,0c-0.41,0.25-0.83,0.5-1.24,0.77c-1.7,1.11-3.46,2.2-4.86,3.7c-1.38,1.48-2.35,3.35-2.67,5.35
	c-0.38,2.36-0.25,4.76-0.76,7.11c-0.41,1.9-1.32,3.85-3.05,5.2c-0.89,0.7-1.95,1.23-3.09,1.6c-0.33,0.11-3.17,0.57-3.48,0.67
	C0.01,31.74,0,31.73,0,31.71C1.05,28.58,2.42,25.86,2.77,23.05z"/>
</svg>
