<?xml version="1.0" encoding="utf-8"?>
<!-- Generator: Adobe Illustrator 23.0.1, SVG Export Plug-In . SVG Version: 6.00 Build 0)  -->
<svg version="1.1" id="brk3" xmlns="http://www.w3.org/2000/svg" xmlns:xlink="http://www.w3.org/1999/xlink" x="0px" y="0px"
	 viewBox="0 0 82.61 31.73" style="enable-background:new 0 0 82.61 31.73;" xml:space="preserve">
<style type="text/css">
	.st0{fill:#212121;}
</style>
<path id="desni3" class="st0" d="M63.65,11.32C62.85,9.62,61.8,8,60.7,6.47c-2.83-3.94-6-6.08-9.29-6.42
	c-2.21-0.23-4.7,0.43-6.66,1.49c-1.88,1.01-3.63,2.61-4.41,4.64c-1.31,3.4,1.05,6.8,2.99,9.42c2.4,3.23,5.3,6.02,8.52,8.42
	c1.42,1.06,2.9,2.03,4.44,2.9c5.18,2.95,11.06,4.75,17.04,4.82c1.57,0.02,3.14-0.09,4.69-0.31c0.78-0.11,1.55-0.26,2.31-0.44
	c0.4-0.09,0.79-0.19,1.19-0.3c0.24-0.07,0.87-0.39,1.1-0.33C71.91,27.45,67.57,19.6,63.65,11.32z"/>
<path id="levi3" class="st0" d="M18.96,11.32c0.81-1.7,1.85-3.32,2.95-4.85c2.83-3.94,6-6.08,9.29-6.42
	c2.21-0.23,4.7,0.43,6.66,1.49c1.88,1.01,3.63,2.61,4.41,4.64c1.31,3.4-1.05,6.8-2.99,9.42c-2.4,3.23-5.3,6.02-8.52,8.42
	c-1.42,1.06-2.9,2.03-4.44,2.9c-5.18,2.95-11.06,4.75-17.04,4.82c-1.57,0.02-3.14-0.09-4.69-0.31c-0.78-0.11-1.55-0.26-2.31-0.44
	c-0.4-0.09-0.79-0.19-1.19-0.3c-0.24-0.07-0.87-0.39-1.1-0.33C10.7,27.45,15.04,19.6,18.96,11.32z"/>
</svg>
